<svg xmlns="http://www.w3.org/2000/svg" viewBox="0 0 900 320" width="900" height="320">
  <defs>
    <!-- Room background gradient -->
    <linearGradient id="wall" x1="0%" y1="0%" x2="0%" y2="100%">
      <stop offset="0%" stop-color="#1a1a2e"/>
      <stop offset="100%" stop-color="#16213e"/>
    </linearGradient>
    <linearGradient id="floor" x1="0%" y1="0%" x2="0%" y2="100%">
      <stop offset="0%" stop-color="#0f3460"/>
      <stop offset="100%" stop-color="#0a0a1a"/>
    </linearGradient>
    <!-- Window gradient (night sky) -->
    <linearGradient id="sky" x1="0%" y1="0%" x2="0%" y2="100%">
      <stop offset="0%" stop-color="#0b0c2a"/>
      <stop offset="100%" stop-color="#1a1a3e"/>
    </linearGradient>
    <!-- Laptop screen glow -->
    <linearGradient id="screenGlow" x1="0%" y1="0%" x2="0%" y2="100%">
      <stop offset="0%" stop-color="#a78bfa"/>
      <stop offset="40%" stop-color="#6d28d9"/>
      <stop offset="100%" stop-color="#4c1d95"/>
    </linearGradient>
    <!-- Lamp light -->
    <radialGradient id="lampLight" cx="50%" cy="0%" r="80%">
      <stop offset="0%" stop-color="#fbbf24" stop-opacity="0.18"/>
      <stop offset="100%" stop-color="#fbbf24" stop-opacity="0"/>
    </radialGradient>
    <!-- Glow filters -->
    <filter id="glow" x="-50%" y="-50%" width="200%" height="200%">
      <feGaussianBlur stdDeviation="3" result="blur"/>
      <feComposite in="SourceGraphic" in2="blur" operator="over"/>
    </filter>
    <filter id="glowSoft" x="-50%" y="-50%" width="200%" height="200%">
      <feGaussianBlur stdDeviation="6" result="blur"/>
      <feComposite in="SourceGraphic" in2="blur" operator="over"/>
    </filter>
    <filter id="shadow" x="-10%" y="-10%" width="120%" height="130%">
      <feDropShadow dx="0" dy="2" stdDeviation="3" flood-color="#000" flood-opacity="0.3"/>
    </filter>
    <!-- Bubble gradients -->
    <radialGradient id="bubbleCyan" cx="40%" cy="35%" r="60%">
      <stop offset="0%" stop-color="#67e8f9"/>
      <stop offset="100%" stop-color="#0891b2"/>
    </radialGradient>
    <radialGradient id="bubblePurple" cx="40%" cy="35%" r="60%">
      <stop offset="0%" stop-color="#c4b5fd"/>
      <stop offset="100%" stop-color="#7c3aed"/>
    </radialGradient>
    <radialGradient id="bubbleAmber" cx="40%" cy="35%" r="60%">
      <stop offset="0%" stop-color="#fde68a"/>
      <stop offset="100%" stop-color="#d97706"/>
    </radialGradient>
    <radialGradient id="bubbleRose" cx="40%" cy="35%" r="60%">
      <stop offset="0%" stop-color="#fda4af"/>
      <stop offset="100%" stop-color="#e11d48"/>
    </radialGradient>
    <radialGradient id="bubbleGreen" cx="40%" cy="35%" r="60%">
      <stop offset="0%" stop-color="#86efac"/>
      <stop offset="100%" stop-color="#16a34a"/>
    </radialGradient>
    <radialGradient id="bubbleBlue" cx="40%" cy="35%" r="60%">
      <stop offset="0%" stop-color="#93c5fd"/>
      <stop offset="100%" stop-color="#2563eb"/>
    </radialGradient>
  </defs>

  <!-- ==================== ROOM ==================== -->
  <!-- Wall -->
  <rect width="900" height="240" fill="url(#wall)"/>
  <!-- Floor -->
  <rect y="240" width="900" height="80" fill="url(#floor)"/>
  <!-- Baseboard line -->
  <line x1="0" y1="240" x2="900" y2="240" stroke="#1e3a5f" stroke-width="2"/>

  <!-- ==================== WINDOW ==================== -->
  <rect x="600" y="30" width="120" height="90" rx="3" fill="url(#sky)" stroke="#334155" stroke-width="2.5"/>
  <!-- Window cross bars -->
  <line x1="660" y1="30" x2="660" y2="120" stroke="#334155" stroke-width="1.5"/>
  <line x1="600" y1="75" x2="720" y2="75" stroke="#334155" stroke-width="1.5"/>
  <!-- Stars in window -->
  <circle cx="625" cy="50" r="1" fill="#fde68a" opacity="0.8">
    <animate attributeName="opacity" values="0.4;0.9;0.4" dur="3s" repeatCount="indefinite"/>
  </circle>
  <circle cx="695" cy="55" r="0.8" fill="#fde68a" opacity="0.6">
    <animate attributeName="opacity" values="0.3;0.8;0.3" dur="4s" repeatCount="indefinite" begin="1s"/>
  </circle>
  <circle cx="645" cy="95" r="0.8" fill="#fde68a" opacity="0.6">
    <animate attributeName="opacity" values="0.3;0.7;0.3" dur="3.5s" repeatCount="indefinite" begin="0.5s"/>
  </circle>
  <circle cx="680" cy="42" r="1.2" fill="#e0f2fe" opacity="0.7">
    <animate attributeName="opacity" values="0.4;0.9;0.4" dur="2.5s" repeatCount="indefinite" begin="1.5s"/>
  </circle>
  <!-- Moon -->
  <circle cx="710" cy="48" r="6" fill="#fef9c3" opacity="0.7"/>

  <!-- ==================== DESK LAMP ==================== -->
  <!-- Lamp arm -->
  <line x1="280" y1="180" x2="310" y2="130" stroke="#94a3b8" stroke-width="2.5" stroke-linecap="round"/>
  <line x1="310" y1="130" x2="340" y2="140" stroke="#94a3b8" stroke-width="2.5" stroke-linecap="round"/>
  <!-- Lamp shade -->
  <polygon points="325,135 355,145 345,150 330,142" fill="#475569"/>
  <!-- Lamp light cone -->
  <ellipse cx="370" cy="210" rx="80" ry="50" fill="url(#lampLight)" opacity="0.6">
    <animate attributeName="opacity" values="0.4;0.7;0.4" dur="5s" repeatCount="indefinite"/>
  </ellipse>
  <!-- Lamp base -->
  <ellipse cx="280" cy="215" rx="12" ry="3" fill="#64748b"/>
  <line x1="280" y1="215" x2="280" y2="180" stroke="#94a3b8" stroke-width="2.5"/>

  <!-- ==================== DESK ==================== -->
  <rect x="300" y="210" width="300" height="12" rx="2" fill="#1e293b" stroke="#334155" stroke-width="1"/>
  <!-- Desk legs -->
  <rect x="310" y="222" width="6" height="50" fill="#1e293b"/>
  <rect x="584" y="222" width="6" height="50" fill="#1e293b"/>

  <!-- ==================== CHAIR (behind person) ==================== -->
  <!-- Chair back -->
  <rect x="395" y="170" width="60" height="55" rx="8" fill="#1e293b" stroke="#334155" stroke-width="1"/>
  <!-- Chair seat -->
  <rect x="388" y="225" width="74" height="10" rx="3" fill="#1e293b"/>
  <!-- Chair legs -->
  <line x1="400" y1="235" x2="395" y2="270" stroke="#475569" stroke-width="2.5" stroke-linecap="round"/>
  <line x1="455" y1="235" x2="460" y2="270" stroke="#475569" stroke-width="2.5" stroke-linecap="round"/>
  <!-- Chair wheels -->
  <circle cx="390" cy="273" r="3" fill="#334155"/>
  <circle cx="465" cy="273" r="3" fill="#334155"/>
  <circle cx="428" cy="275" r="3" fill="#334155"/>
  <!-- Chair pole -->
  <line x1="428" y1="235" x2="428" y2="270" stroke="#475569" stroke-width="2.5"/>

  <!-- ==================== PERSON ==================== -->
  <!-- Body / torso -->
  <rect x="405" y="186" width="46" height="38" rx="6" fill="#6d28d9"/>
  <!-- Shoulders -->
  <ellipse cx="428" cy="186" rx="28" ry="6" fill="#6d28d9"/>

  <!-- Head -->
  <ellipse cx="428" cy="166" rx="16" ry="18" fill="#d4a574"/>
  <!-- Hair -->
  <ellipse cx="428" cy="155" rx="17" ry="12" fill="#1a1a2e"/>
  <rect x="411" y="150" width="34" height="10" rx="4" fill="#1a1a2e"/>

  <!-- Left arm (on desk, typing) -->
  <line x1="405" y1="195" x2="375" y2="208" stroke="#d4a574" stroke-width="5" stroke-linecap="round"/>
  <!-- Left hand -->
  <circle cx="373" cy="208" r="3.5" fill="#d4a574"/>

  <!-- Right arm (on desk, typing) -->
  <line x1="451" y1="195" x2="478" y2="208" stroke="#d4a574" stroke-width="5" stroke-linecap="round"/>
  <!-- Right hand -->
  <circle cx="480" cy="208" r="3.5" fill="#d4a574"/>

  <!-- ==================== LAPTOP ==================== -->
  <!-- Laptop screen -->
  <rect x="355" y="165" width="80" height="48" rx="3" fill="url(#screenGlow)" stroke="#475569" stroke-width="1.5"/>
  <!-- Screen shine -->
  <rect x="360" y="169" width="70" height="40" rx="2" fill="#0f0826" opacity="0.3"/>
  <!-- Code lines on screen -->
  <rect x="364" y="174" width="28" height="2" rx="1" fill="#67e8f9" opacity="0.7"/>
  <rect x="364" y="179" width="40" height="2" rx="1" fill="#a78bfa" opacity="0.6"/>
  <rect x="364" y="184" width="20" height="2" rx="1" fill="#86efac" opacity="0.6"/>
  <rect x="364" y="189" width="35" height="2" rx="1" fill="#fbbf24" opacity="0.5"/>
  <rect x="364" y="194" width="25" height="2" rx="1" fill="#67e8f9" opacity="0.5"/>
  <rect x="364" y="199" width="45" height="2" rx="1" fill="#c4b5fd" opacity="0.4"/>

  <!-- Screen glow on face -->
  <ellipse cx="428" cy="175" rx="30" ry="20" fill="#a78bfa" opacity="0.06"/>

  <!-- Laptop base/keyboard -->
  <rect x="350" y="210" width="88" height="5" rx="1.5" fill="#334155" stroke="#475569" stroke-width="0.5"/>

  <!-- ==================== COFFEE MUG ==================== -->
  <rect x="495" y="197" width="14" height="15" rx="2" fill="#475569" stroke="#64748b" stroke-width="1"/>
  <!-- Mug handle -->
  <path d="M509,200 C515,200 515,210 509,210" fill="none" stroke="#64748b" stroke-width="1.5"/>
  <!-- Steam -->
  <path d="M499,195 Q500,188 497,182" fill="none" stroke="#94a3b8" stroke-width="0.8" opacity="0.4">
    <animate attributeName="opacity" values="0.1;0.5;0.1" dur="3s" repeatCount="indefinite"/>
    <animate attributeName="d" values="M499,195 Q500,188 497,182;M499,195 Q498,186 500,180;M499,195 Q500,188 497,182" dur="4s" repeatCount="indefinite"/>
  </path>
  <path d="M504,196 Q506,189 503,183" fill="none" stroke="#94a3b8" stroke-width="0.8" opacity="0.3">
    <animate attributeName="opacity" values="0.1;0.4;0.1" dur="3.5s" repeatCount="indefinite" begin="0.5s"/>
    <animate attributeName="d" values="M504,196 Q506,189 503,183;M504,196 Q503,187 505,181;M504,196 Q506,189 503,183" dur="4.5s" repeatCount="indefinite" begin="0.5s"/>
  </path>

  <!-- ==================== BOOKSHELF ON WALL ==================== -->
  <rect x="770" y="80" width="90" height="8" rx="1" fill="#1e293b" stroke="#334155" stroke-width="0.8"/>
  <!-- Books -->
  <rect x="775" y="55" width="8" height="25" rx="1" fill="#6d28d9"/>
  <rect x="785" y="60" width="7" height="20" rx="1" fill="#0891b2"/>
  <rect x="794" y="52" width="9" height="28" rx="1" fill="#d97706"/>
  <rect x="805" y="58" width="7" height="22" rx="1" fill="#e11d48"/>
  <rect x="814" y="54" width="8" height="26" rx="1" fill="#16a34a"/>
  <rect x="824" y="62" width="7" height="18" rx="1" fill="#2563eb"/>
  <!-- Second shelf -->
  <rect x="770" y="130" width="90" height="8" rx="1" fill="#1e293b" stroke="#334155" stroke-width="0.8"/>
  <rect x="774" y="108" width="9" height="22" rx="1" fill="#0891b2"/>
  <rect x="785" y="105" width="7" height="25" rx="1" fill="#e11d48"/>
  <rect x="794" y="110" width="8" height="20" rx="1" fill="#fbbf24"/>
  <rect x="804" y="107" width="7" height="23" rx="1" fill="#6d28d9"/>
  <rect x="813" y="112" width="9" height="18" rx="1" fill="#16a34a"/>

  <!-- ==================== PLANT IN CORNER ==================== -->
  <!-- Pot -->
  <polygon points="100,250 115,270 85,270" fill="#92400e"/>
  <rect x="83" y="246" width="34" height="6" rx="2" fill="#a0522d"/>
  <!-- Plant leaves -->
  <path d="M100,246 Q95,220 80,215" fill="none" stroke="#16a34a" stroke-width="2.5" stroke-linecap="round"/>
  <path d="M100,246 Q108,218 120,212" fill="none" stroke="#22c55e" stroke-width="2.5" stroke-linecap="round"/>
  <path d="M100,246 Q98,225 90,218" fill="none" stroke="#15803d" stroke-width="2" stroke-linecap="round"/>
  <path d="M100,246 Q105,222 115,220" fill="none" stroke="#16a34a" stroke-width="2" stroke-linecap="round"/>
  <path d="M100,246 Q100,222 100,210" fill="none" stroke="#22c55e" stroke-width="2" stroke-linecap="round"/>
  <!-- Small leaves -->
  <ellipse cx="78" cy="213" rx="6" ry="3" fill="#22c55e" transform="rotate(-30,78,213)"/>
  <ellipse cx="122" cy="210" rx="6" ry="3" fill="#16a34a" transform="rotate(25,122,210)"/>
  <ellipse cx="88" cy="216" rx="5" ry="2.5" fill="#15803d" transform="rotate(-15,88,216)"/>
  <ellipse cx="116" cy="218" rx="5" ry="2.5" fill="#22c55e" transform="rotate(20,116,218)"/>
  <ellipse cx="100" cy="208" rx="5" ry="3" fill="#16a34a"/>

  <!-- ==================== IDEA BUBBLES FLOATING UP ==================== -->

  <!-- Bubble 1: memory-bank (Cyan) -->
  <g filter="url(#glow)">
    <circle cx="320" cy="100" r="22" fill="url(#bubbleCyan)" opacity="0.75">
      <animate attributeName="cy" values="105;95;105" dur="6s" repeatCount="indefinite"/>
      <animate attributeName="opacity" values="0.65;0.85;0.65" dur="6s" repeatCount="indefinite"/>
    </circle>
    <!-- Memory icon: brain/chip -->
    <rect x="311" y="91" width="18" height="18" rx="3" fill="none" stroke="#fff" stroke-width="1.2" opacity="0.9">
      <animate attributeName="y" values="96;86;96" dur="6s" repeatCount="indefinite"/>
    </rect>
    <circle cx="320" cy="100" r="3" fill="#fff" opacity="0.8">
      <animate attributeName="cy" values="105;95;105" dur="6s" repeatCount="indefinite"/>
    </circle>
    <line x1="311" y1="100" x2="316" y2="100" stroke="#fff" stroke-width="0.8" opacity="0.7">
      <animate attributeName="y1" values="105;95;105" dur="6s" repeatCount="indefinite"/>
      <animate attributeName="y2" values="105;95;105" dur="6s" repeatCount="indefinite"/>
    </line>
    <line x1="324" y1="100" x2="329" y2="100" stroke="#fff" stroke-width="0.8" opacity="0.7">
      <animate attributeName="y1" values="105;95;105" dur="6s" repeatCount="indefinite"/>
      <animate attributeName="y2" values="105;95;105" dur="6s" repeatCount="indefinite"/>
    </line>
    <text x="320" y="128" text-anchor="middle" font-family="monospace" font-size="7" fill="#67e8f9" opacity="0.8">
      memory-bank
      <animate attributeName="y" values="133;123;133" dur="6s" repeatCount="indefinite"/>
    </text>
  </g>

  <!-- Bubble 2: Immortal (Purple) -->
  <g filter="url(#glow)">
    <circle cx="220" cy="70" r="20" fill="url(#bubblePurple)" opacity="0.7">
      <animate attributeName="cy" values="75;63;75" dur="7s" repeatCount="indefinite" begin="1s"/>
      <animate attributeName="opacity" values="0.6;0.8;0.6" dur="7s" repeatCount="indefinite" begin="1s"/>
    </circle>
    <!-- Infinity/loop icon -->
    <path d="M212,70 C212,64 218,62 220,66 C222,62 228,64 228,70 C228,76 222,78 220,74 C218,78 212,76 212,70" fill="none" stroke="#fff" stroke-width="1.2" opacity="0.9">
      <animate attributeName="d" values="M212,75 C212,69 218,67 220,71 C222,67 228,69 228,75 C228,81 222,83 220,79 C218,83 212,81 212,75;M212,63 C212,57 218,55 220,59 C222,55 228,57 228,63 C228,69 222,71 220,67 C218,71 212,69 212,63;M212,75 C212,69 218,67 220,71 C222,67 228,69 228,75 C228,81 222,83 220,79 C218,83 212,81 212,75" dur="7s" repeatCount="indefinite" begin="1s"/>
    </path>
    <text x="220" y="97" text-anchor="middle" font-family="monospace" font-size="7" fill="#c4b5fd" opacity="0.8">
      Immortal
      <animate attributeName="y" values="102;90;102" dur="7s" repeatCount="indefinite" begin="1s"/>
    </text>
  </g>

  <!-- Bubble 3: jobsheet.me (Amber) -->
  <g filter="url(#glow)">
    <circle cx="480" cy="85" r="24" fill="url(#bubbleAmber)" opacity="0.7">
      <animate attributeName="cy" values="90;78;90" dur="5.5s" repeatCount="indefinite" begin="0.5s"/>
      <animate attributeName="opacity" values="0.6;0.82;0.6" dur="5.5s" repeatCount="indefinite" begin="0.5s"/>
    </circle>
    <!-- Briefcase icon -->
    <rect x="472" y="82" width="16" height="12" rx="2" fill="none" stroke="#fff" stroke-width="1.2" opacity="0.9">
      <animate attributeName="y" values="87;75;87" dur="5.5s" repeatCount="indefinite" begin="0.5s"/>
    </rect>
    <path d="M476,82 L476,79 C476,77 478,76 480,76 C482,76 484,77 484,79 L484,82" fill="none" stroke="#fff" stroke-width="1" opacity="0.8">
      <animate attributeName="d" values="M476,87 L476,84 C476,82 478,81 480,81 C482,81 484,82 484,84 L484,87;M476,75 L476,72 C476,70 478,69 480,69 C482,69 484,70 484,72 L484,75;M476,87 L476,84 C476,82 478,81 480,81 C482,81 484,82 484,84 L484,87" dur="5.5s" repeatCount="indefinite" begin="0.5s"/>
    </path>
    <text x="480" y="117" text-anchor="middle" font-family="monospace" font-size="7" fill="#fde68a" opacity="0.8">
      jobsheet.me
      <animate attributeName="y" values="122;110;122" dur="5.5s" repeatCount="indefinite" begin="0.5s"/>
    </text>
  </g>

  <!-- Bubble 4: pulseops (Rose) -->
  <g filter="url(#glow)">
    <circle cx="560" cy="55" r="18" fill="url(#bubbleRose)" opacity="0.65">
      <animate attributeName="cy" values="60;48;60" dur="6.5s" repeatCount="indefinite" begin="2s"/>
      <animate attributeName="opacity" values="0.55;0.78;0.55" dur="6.5s" repeatCount="indefinite" begin="2s"/>
    </circle>
    <!-- Pulse/heartbeat line -->
    <polyline points="550,55 554,55 557,48 560,62 563,50 566,55 570,55" fill="none" stroke="#fff" stroke-width="1.2" opacity="0.9" stroke-linejoin="round">
      <animate attributeName="points" values="550,60 554,60 557,53 560,67 563,55 566,60 570,60;550,48 554,48 557,41 560,55 563,43 566,48 570,48;550,60 554,60 557,53 560,67 563,55 566,60 570,60" dur="6.5s" repeatCount="indefinite" begin="2s"/>
    </polyline>
    <text x="560" y="80" text-anchor="middle" font-family="monospace" font-size="7" fill="#fda4af" opacity="0.8">
      pulseops
      <animate attributeName="y" values="85;73;85" dur="6.5s" repeatCount="indefinite" begin="2s"/>
    </text>
  </g>

  <!-- Bubble 5: OpenClaw (Green) -->
  <g filter="url(#glow)">
    <circle cx="380" cy="50" r="26" fill="url(#bubbleGreen)" opacity="0.7">
      <animate attributeName="cy" values="55;42;55" dur="7.5s" repeatCount="indefinite" begin="1.5s"/>
      <animate attributeName="opacity" values="0.6;0.82;0.6" dur="7.5s" repeatCount="indefinite" begin="1.5s"/>
    </circle>
    <!-- Claw/terminal icon -->
    <text x="380" y="54" text-anchor="middle" font-family="monospace" font-size="14" fill="#fff" font-weight="bold" opacity="0.9">
      &gt;_
      <animate attributeName="y" values="59;46;59" dur="7.5s" repeatCount="indefinite" begin="1.5s"/>
    </text>
    <text x="380" y="82" text-anchor="middle" font-family="monospace" font-size="7" fill="#86efac" opacity="0.8">
      OpenClaw
      <animate attributeName="y" values="87;74;87" dur="7.5s" repeatCount="indefinite" begin="1.5s"/>
    </text>
  </g>

  <!-- Bubble 6: Profile Builder (Blue) - small accent -->
  <g filter="url(#glow)">
    <circle cx="170" cy="120" r="14" fill="url(#bubbleBlue)" opacity="0.55">
      <animate attributeName="cy" values="125;115;125" dur="8s" repeatCount="indefinite" begin="3s"/>
      <animate attributeName="opacity" values="0.45;0.65;0.45" dur="8s" repeatCount="indefinite" begin="3s"/>
    </circle>
    <!-- Code brackets icon -->
    <text x="170" y="124" text-anchor="middle" font-family="monospace" font-size="10" fill="#fff" opacity="0.85">
      { }
      <animate attributeName="y" values="129;119;129" dur="8s" repeatCount="indefinite" begin="3s"/>
    </text>
    <text x="170" y="142" text-anchor="middle" font-family="monospace" font-size="6" fill="#93c5fd" opacity="0.7">
      builder
      <animate attributeName="y" values="147;137;147" dur="8s" repeatCount="indefinite" begin="3s"/>
    </text>
  </g>

  <!-- ==================== SMALL SPARKLE PARTICLES ==================== -->
  <!-- Rising particles from laptop -->
  <circle r="1.5" fill="#a78bfa" opacity="0">
    <animate attributeName="cx" values="400;390;395" dur="4s" repeatCount="indefinite"/>
    <animate attributeName="cy" values="165;120;80" dur="4s" repeatCount="indefinite"/>
    <animate attributeName="opacity" values="0;0.6;0" dur="4s" repeatCount="indefinite"/>
  </circle>
  <circle r="1.2" fill="#67e8f9" opacity="0">
    <animate attributeName="cx" values="420;430;425" dur="5s" repeatCount="indefinite" begin="1.5s"/>
    <animate attributeName="cy" values="165;110;70" dur="5s" repeatCount="indefinite" begin="1.5s"/>
    <animate attributeName="opacity" values="0;0.5;0" dur="5s" repeatCount="indefinite" begin="1.5s"/>
  </circle>
  <circle r="1" fill="#fbbf24" opacity="0">
    <animate attributeName="cx" values="410;415;405" dur="4.5s" repeatCount="indefinite" begin="2.5s"/>
    <animate attributeName="cy" values="165;115;75" dur="4.5s" repeatCount="indefinite" begin="2.5s"/>
    <animate attributeName="opacity" values="0;0.5;0" dur="4.5s" repeatCount="indefinite" begin="2.5s"/>
  </circle>
  <circle r="0.8" fill="#86efac" opacity="0">
    <animate attributeName="cx" values="395;385;392" dur="5.5s" repeatCount="indefinite" begin="0.8s"/>
    <animate attributeName="cy" values="165;105;60" dur="5.5s" repeatCount="indefinite" begin="0.8s"/>
    <animate attributeName="opacity" values="0;0.4;0" dur="5.5s" repeatCount="indefinite" begin="0.8s"/>
  </circle>
  <circle r="1" fill="#fb7185" opacity="0">
    <animate attributeName="cx" values="430;440;435" dur="6s" repeatCount="indefinite" begin="3s"/>
    <animate attributeName="cy" values="165;100;55" dur="6s" repeatCount="indefinite" begin="3s"/>
    <animate attributeName="opacity" values="0;0.45;0" dur="6s" repeatCount="indefinite" begin="3s"/>
  </circle>
  <circle r="1.3" fill="#c4b5fd" opacity="0">
    <animate attributeName="cx" values="405;395;400" dur="3.5s" repeatCount="indefinite" begin="4s"/>
    <animate attributeName="cy" values="165;125;90" dur="3.5s" repeatCount="indefinite" begin="4s"/>
    <animate attributeName="opacity" values="0;0.55;0" dur="3.5s" repeatCount="indefinite" begin="4s"/>
  </circle>

  <!-- ==================== WALL ART / FRAME ==================== -->
  <!-- Small framed picture on wall -->
  <rect x="180" y="40" width="50" height="35" rx="2" fill="#0f172a" stroke="#334155" stroke-width="1.5"/>
  <!-- Abstract art inside frame -->
  <circle cx="200" cy="52" r="5" fill="#6d28d9" opacity="0.5"/>
  <circle cx="210" cy="60" r="4" fill="#0891b2" opacity="0.4"/>
  <circle cx="195" cy="62" r="3" fill="#d97706" opacity="0.4"/>

</svg>